<svg width="22" height="14" viewBox="0 0 22 14" fill="none" xmlns="http://www.w3.org/2000/svg">
<path d="M20.8351 0.0325125L20.6319 0H1.38913L1.25361 0.0325125L11.0105 8.35571L20.8351 0.0325125Z" fill="#4F4F4F"/>
<path d="M21.9189 0.878308L14.9739 6.76307L21.8173 12.5178C21.9189 12.3227 21.9867 12.1276 21.9867 11.9V1.33348C22.0206 1.17092 21.9867 1.00836 21.9189 0.878308Z" fill="#4F4F4F"/>
<path d="M0.101634 0.812512C0.0338781 0.975075 0 1.13764 0 1.33271V11.8993C0 12.0943 0.0338781 12.2569 0.135512 12.452L7.04664 6.7623L0.101634 0.812512Z" fill="#4F4F4F"/>
<path d="M11.0105 10.144L8.06313 7.60802L1.28752 13.2002H20.598L13.9579 7.64053L11.0105 10.144Z" fill="#4F4F4F"/>
</svg>
