<svg width="31" height="41" viewBox="0 0 31 41" fill="none" xmlns="http://www.w3.org/2000/svg">
<path d="M0 41V1H21L30 10V41H0Z" fill="#2D9CDB"/>
<path d="M20.5 0.5V10.5H30.5" stroke="white"/>
<path d="M7.47607 23.3467V26H5.59082V18.1797H8.71143C9.30941 18.1797 9.83757 18.2907 10.2959 18.5127C10.7578 18.7311 11.1141 19.0444 11.3647 19.4526C11.619 19.8573 11.7461 20.3174 11.7461 20.833C11.7461 21.5957 11.4722 22.2062 10.9243 22.6646C10.38 23.1193 9.63167 23.3467 8.6792 23.3467H7.47607ZM7.47607 21.8911H8.71143C9.07666 21.8911 9.35417 21.7998 9.54395 21.6172C9.7373 21.4346 9.83398 21.1768 9.83398 20.8438C9.83398 20.4785 9.73551 20.1867 9.53857 19.9683C9.34163 19.7498 9.07308 19.6388 8.73291 19.6353H7.47607V21.8911ZM12.7559 26V18.1797H15.2749C15.966 18.1797 16.5872 18.3372 17.1387 18.6523C17.6901 18.9639 18.1198 19.4061 18.4277 19.979C18.7393 20.5483 18.8968 21.1875 18.9004 21.8965V22.2563C18.9004 22.9725 18.7482 23.6152 18.4438 24.1846C18.1431 24.7503 17.717 25.1943 17.1655 25.5166C16.6177 25.8353 16.0054 25.9964 15.3286 26H12.7559ZM14.6411 19.6353V24.5498H15.2964C15.8371 24.5498 16.2524 24.3582 16.5425 23.9751C16.8325 23.5884 16.9775 23.0155 16.9775 22.2563V21.918C16.9775 21.1624 16.8325 20.5931 16.5425 20.21C16.2524 19.8268 15.8299 19.6353 15.2749 19.6353H14.6411ZM24.7925 22.8848H21.7524V26H19.8672V18.1797H25.0986V19.6353H21.7524V21.4346H24.7925V22.8848Z" fill="white"/>
</svg>
