<svg width="21" height="21" viewBox="0 0 21 21" fill="none" xmlns="http://www.w3.org/2000/svg">
<path fill-rule="evenodd" clip-rule="evenodd" d="M3.44435 10.5556C5.40807 12.5194 8.5919 12.5194 10.5556 10.5556C12.5193 8.59192 12.5193 5.40809 10.5556 3.44436C8.5919 1.48063 5.40807 1.48063 3.44435 3.44436C1.48063 5.40809 1.48063 8.59192 3.44435 10.5556ZM2.05025 11.9498C4.78391 14.6834 9.21606 14.6834 11.9497 11.9498C14.6834 9.21608 14.6834 4.78392 11.9497 2.05025C9.21606 -0.683418 4.78391 -0.683418 2.05025 2.05025C-0.683416 4.78392 -0.683416 9.21608 2.05025 11.9498Z" fill="#4F4F4F"/>
<path d="M11.752 11.7521C12.5331 10.971 13.7994 10.971 14.5805 11.7521L20.2373 17.4089C21.0184 18.19 21.0184 19.4563 20.2373 20.2374C19.4563 21.0184 18.1899 21.0184 17.4089 20.2374L11.752 14.5805C10.971 13.7995 10.971 12.5331 11.752 11.7521Z" fill="#4F4F4F"/>
</svg>
